<?xml version="1.0" encoding="utf-8"?>
<svg xmlns="http://www.w3.org/2000/svg" viewBox="0 0 500 500" xmlns:bx="https://boxy-svg.com">
  <defs>
    <bx:export>
      <bx:file format="svg" href="#Layer_1" path="Bez nazwy.svg"/>
      <bx:file format="svg" href="#svg-1" path="Bez nazwy 2.svg"/>
    </bx:export>
  </defs>
  <g id="Layer_1" transform="matrix(0.979009, 0, 0, 0.979009, 114.405609, 26.994141)" style="">
    <g id="SVGRepo_bgCarrier" stroke-width="0" transform="matrix(1, 0, 0, 1, -117.493752, -28.2085)"/>
    <g id="SVGRepo_tracerCarrier" stroke-linecap="round" stroke-linejoin="round" transform="matrix(1, 0, 0, 1, -117.493752, -28.2085)"/>
    <g id="SVGRepo_iconCarrier" transform="matrix(1, 0, 0, 1, -117.493752, -28.2085)">
      <g>
        <path style="fill:#434A54;" d="M223.996,165.331c-3.125,0-6.219-1.375-8.328-4.008L130.342,54.662 c-3.688-4.602-2.938-11.312,1.656-14.992c4.609-3.68,11.312-2.938,15,1.664l85.327,106.662c3.688,4.602,2.938,11.312-1.672,14.992 C228.7,164.566,226.34,165.331,223.996,165.331z"/>
        <path style="fill:#434A54;" d="M277.34,165.331c-3.125,0-6.234-1.375-8.344-4.008L183.669,54.662 c-3.688-4.602-2.938-11.312,1.672-14.992c4.593-3.68,11.312-2.938,14.984,1.664l85.327,106.662 c3.688,4.602,2.938,11.312-1.656,14.992C282.027,164.566,279.668,165.331,277.34,165.331z"/>
      </g>
      <rect x="181.326" y="154.656" style="fill:#f25f67;" width="128" height="31.999"/>
      <path style="fill:#5add13;" d="M479.992,421.318H32c-17.641,0-32-14.343-32-31.999V207.995c0-17.648,14.359-32,32-32h447.992 c17.64,0,31.999,14.352,31.999,32V389.32C511.991,406.975,497.632,421.318,479.992,421.318z"/>
      <path style="fill:#f25f67;" d="M0.001,389.319c0,17.656,14.359,31.999,32,31.999h47.921v-42.655H0.001V389.319z"/>
      <path style="fill:#4FC2E9;" d="M511.991,218.659H53.328c-5.891,0-10.656,4.773-10.656,10.664v85.342 c0,5.891,4.766,10.656,10.656,10.656h458.663V218.659z"/>
      <g>
        <path style="fill:#434A54;" d="M95.999,367.991c-29.406,0-53.327,23.922-53.327,53.327c0,29.422,23.921,53.343,53.327,53.343 s53.327-23.921,53.327-53.343C149.326,391.913,125.405,367.991,95.999,367.991z"/>
        <path style="fill:#434A54;" d="M394.665,367.991c-29.405,0-53.343,23.922-53.343,53.327c0,29.422,23.938,53.343,53.343,53.343 s53.327-23.921,53.327-53.343C447.992,391.913,424.07,367.991,394.665,367.991z"/>
      </g>
      <path style="fill:#F5F7FA;" d="M103.546,413.788c4.156,4.155,4.156,10.905,0,15.077c-4.172,4.172-10.922,4.172-15.093,0 c-4.156-4.172-4.156-10.922,0-15.077C92.624,409.616,99.374,409.616,103.546,413.788z"/>
      <rect x="181.326" y="325.366" style="fill:#f25f67;" width="128" height="95.95"/>
      <path style="fill:#F5F7FA;" d="M402.196,413.788c4.172,4.155,4.172,10.905,0,15.077c-4.156,4.172-10.905,4.172-15.077,0 s-4.172-10.922,0-15.077C391.291,409.616,398.04,409.616,402.196,413.788z"/>
      <rect x="239.996" y="218.656" style="fill:#f25f67;" width="10.671" height="202.66"/>
      <g>
        <polygon style="fill:#3BAFDA;" points="95.311,325.367 94.968,218.659 116.311,218.596 116.639,325.289 "/>
        <polygon style="fill:#3BAFDA;" points="384.166,325.367 383.822,218.659 405.165,218.596 405.493,325.289 "/>
      </g>
      <g>
        <polygon style="fill:#f25f67;" points="181.326,218.659 309.323,218.659 309.323,421.318 319.994,421.318 319.994,218.659 319.994,207.995 309.323,207.995 181.326,207.995 170.669,207.995 170.669,218.659 170.669,421.318 181.326,421.318 "/>
        <path style="fill:#f25f67;" d="M511.991,346.664h-31.999c-5.891,0-10.672,4.766-10.672,10.656s4.781,10.671,10.672,10.671h31.999 V346.664z"/>
      </g>
    </g>
  </g>
  <g id="svg-1" transform="matrix(-0.403629, -0.233035, -0.233035, 0.403629, 67.900444, 105.030838)" style="transform-origin: 341.624px 36.8472px;">
    <g id="group-1" stroke-width="0" transform="matrix(1, 0, 0, 1, 85.623329, -115.648811)"/>
    <g id="group-2" stroke-linecap="round" stroke-linejoin="round" transform="matrix(1, 0, 0, 1, 85.623329, -115.648811)"/>
    <g id="group-3" transform="matrix(1, 0, 0, 1, 85.623329, -115.648811)">
      <polygon style="fill:#D9000C;" points="244.083,304.992 432.956,304.992 432.956,256.784 223.168,235.869 "/>
      <g>
        <polygon style="fill:#E43138;" points="55.21,256.784 55.21,304.992 244.083,304.992 244.083,235.869 "/>
        <path style="fill:#E43138;" d="M461.846,215.976V91.145h-39.71C383.005,35.993,318.642,0,245.871,0 c-0.598,0-1.191,0.018-1.788,0.022l-20.915,156.713l20.915,100.049h188.873h64.642L461.846,215.976z"/>
      </g>
      <g>
        <path style="fill:#F25F67;" d="M244.083,0.022C125.627,0.984,29.895,97.294,29.895,215.976l-15.492,40.807H55.21h188.873V0.022z"/>
        <path style="fill:#F25F67;" d="M245.871,38.224c-0.597,0-1.191,0.015-1.788,0.021l-10.457,15.742l10.457,15.604 c0.596-0.007,1.191-0.021,1.788-0.021c47.375,0,92.057,23.115,119.524,61.832l25.567-18.137 C357.625,66.277,303.386,38.224,245.871,38.224z"/>
      </g>
      <path style="fill:#E43138;" d="M125.081,85.674c-32.8,30.426-52.827,71.607-56.389,115.957l31.247,2.51 c2.932-36.502,19.432-70.413,46.46-95.485c26.733-24.798,61.361-38.624,97.684-39.065V38.244 C199.827,38.686,157.629,55.482,125.081,85.674z"/>
    </g>
  </g>
</svg>